<svg width="18" height="18" viewBox="0 0 18 18" fill="none" xmlns="http://www.w3.org/2000/svg">
<path d="M2.625 13.5C2.625 12.4394 2.625 11.909 2.95451 11.5795C3.28401 11.25 3.81434 11.25 4.875 11.25H5.25C5.95711 11.25 6.31066 11.25 6.53033 11.4697C6.75 11.6894 6.75 12.0429 6.75 12.75V16.5H2.625V13.5Z" stroke="#8993A6" stroke-linecap="round" stroke-linejoin="round"/>
<path d="M11.25 14.25C11.25 13.5429 11.25 13.1894 11.4697 12.9697C11.6894 12.75 12.0429 12.75 12.75 12.75H13.125C14.1856 12.75 14.716 12.75 15.0455 13.0795C15.375 13.409 15.375 13.9394 15.375 15V16.5H11.25V14.25Z" stroke="#8993A6" stroke-linecap="round" stroke-linejoin="round"/>
<path d="M1.5 16.5H16.5" stroke="#8993A6" stroke-linecap="round" stroke-linejoin="round"/>
<path d="M6.75 12C6.75 10.9394 6.75 10.409 7.0795 10.0795C7.40901 9.75 7.93935 9.75 9 9.75C10.0606 9.75 10.591 9.75 10.9205 10.0795C11.25 10.409 11.25 10.9394 11.25 12V16.5H6.75V12Z" stroke="#8993A6" stroke-linecap="round" stroke-linejoin="round"/>
<path d="M9.51832 1.93325L10.0462 2.99786C10.1182 3.14606 10.3102 3.28821 10.4722 3.31543L11.4291 3.47573C12.041 3.57856 12.185 4.02618 11.744 4.46775L11.0001 5.21782C10.8742 5.34485 10.8052 5.58983 10.8442 5.76524L11.0571 6.69375C11.2251 7.42869 10.8382 7.713 10.1932 7.32889L9.29632 6.79356C9.13432 6.69677 8.8674 6.69677 8.7024 6.79356L7.80547 7.32889C7.16355 7.713 6.77359 7.42567 6.94157 6.69375L7.15455 5.76524C7.19355 5.58983 7.12456 5.34485 6.99857 5.21782L6.25465 4.46775C5.8167 4.02618 5.95768 3.57856 6.56962 3.47573L7.52647 3.31543C7.68547 3.28821 7.87747 3.14606 7.94947 2.99786L8.4774 1.93325C8.7654 1.35558 9.23332 1.35558 9.51832 1.93325Z" stroke="#8993A6" stroke-linecap="round" stroke-linejoin="round"/>
</svg>
