<svg width="20" height="20" viewBox="0 0 20 20" fill="none" xmlns="http://www.w3.org/2000/svg">
<path d="M4.00686 7.86766L5.64461 6.22417C6.82463 5.04 7.28718 4.40299 7.92616 4.62819C8.72292 4.90899 8.46067 6.68078 8.46067 7.27894C9.69942 7.27894 10.9873 7.16884 12.2085 7.39824C16.2395 8.15554 17.5 11.4294 17.5 15C16.3591 14.1918 15.2193 13.3308 13.8481 12.9563C12.1363 12.4888 10.2247 12.7118 8.46067 12.7118C8.46067 13.31 8.72292 15.0818 7.92616 15.3626C7.20209 15.6178 6.82463 14.9508 5.64461 13.7666L4.00686 12.1231C3.00229 11.115 2.5 10.611 2.5 9.99543C2.5 9.37984 3.00229 8.87576 4.00686 7.86766Z" stroke="#8993A6" stroke-width="1.2" stroke-linecap="round" stroke-linejoin="round"/>
</svg>
