<svg width="16" height="16" viewBox="0 0 16 16" fill="none" xmlns="http://www.w3.org/2000/svg">
<path d="M8.66665 14.6667H4.39389C3.36364 14.6667 2.54419 14.1653 1.80842 13.4644C0.302224 12.0294 2.77518 10.8827 3.71836 10.3211C5.31784 9.36868 7.22831 9.10501 8.99998 9.53014" stroke="#8993A6" stroke-linecap="round" stroke-linejoin="round"/>
<path d="M11 4.33334C11 5.9902 9.65687 7.33334 8 7.33334C6.34315 7.33334 5 5.9902 5 4.33334C5 2.67649 6.34315 1.33334 8 1.33334C9.65687 1.33334 11 2.67649 11 4.33334Z" stroke="#8993A6"/>
<path d="M10.7 10.7L13.9667 13.9667M14.6667 12.3333C14.6667 11.0447 13.622 10 12.3333 10C11.0447 10 10 11.0447 10 12.3333C10 13.622 11.0447 14.6667 12.3333 14.6667C13.622 14.6667 14.6667 13.622 14.6667 12.3333Z" stroke="#8993A6" stroke-linecap="round"/>
</svg>
