<svg width="18" height="18" viewBox="0 0 18 18" fill="none" xmlns="http://www.w3.org/2000/svg">
<path d="M9.67499 16.8H5.24314C4.08411 16.8 3.16222 16.236 2.33448 15.4475C0.640012 13.8331 3.42209 12.543 4.48317 11.9112C6.05877 10.9731 7.90259 10.629 9.67499 10.8789C10.3181 10.9696 10.9444 11.1386 11.55 11.3857" stroke="white" stroke-width="1.6" stroke-linecap="round" stroke-linejoin="round"/>
<path d="M12.6756 5.17505C12.6756 7.03901 11.1646 8.55005 9.3006 8.55005C7.43664 8.55005 5.9256 7.03901 5.9256 5.17505C5.9256 3.31109 7.43664 1.80005 9.3006 1.80005C11.1646 1.80005 12.6756 3.31109 12.6756 5.17505Z" stroke="white" stroke-width="1.6"/>
<path d="M14.1756 16.8002V11.5502M11.5506 14.1752H16.8006" stroke="white" stroke-width="1.6" stroke-linecap="round"/>
</svg>
