<svg width="40" height="40" viewBox="0 0 40 40" fill="none" xmlns="http://www.w3.org/2000/svg">
<path d="M21.6667 36.6667H10.9848C8.40919 36.6667 6.36056 35.4133 4.52114 33.661C0.755651 30.0735 6.93804 27.2067 9.29599 25.8027C13.2947 23.4217 18.0709 22.7625 22.5 23.8253" stroke="#FF473C" stroke-width="2.5" stroke-linecap="round" stroke-linejoin="round"/>
<path d="M27.5 10.8333C27.5 14.9755 24.1422 18.3333 20 18.3333C15.8579 18.3333 12.5 14.9755 12.5 10.8333C12.5 6.69119 15.8579 3.33333 20 3.33333C24.1422 3.33333 27.5 6.69119 27.5 10.8333Z" stroke="#FF473C" stroke-width="2.5"/>
<path d="M26.75 26.75L34.9167 34.9167M36.6667 30.8333C36.6667 27.6117 34.055 25 30.8333 25C27.6117 25 25 27.6117 25 30.8333C25 34.055 27.6117 36.6667 30.8333 36.6667C34.055 36.6667 36.6667 34.055 36.6667 30.8333Z" stroke="#FF473C" stroke-width="2.5" stroke-linecap="round"/>
</svg>
