<svg width="16" height="16" viewBox="0 0 16 16" fill="none" xmlns="http://www.w3.org/2000/svg">
<path d="M3.54782 6.45528C5.15694 3.60798 5.96149 2.18433 7.06555 1.81786C7.67288 1.61625 8.32715 1.61625 8.93448 1.81786C10.0385 2.18433 10.8431 3.60798 12.4522 6.45528C14.0613 9.30254 14.8659 10.7262 14.6245 11.8862C14.4917 12.5244 14.1646 13.1032 13.69 13.5398C12.8273 14.3333 11.2183 14.3333 8.00001 14.3333C4.78178 14.3333 3.17266 14.3333 2.30999 13.5398C1.8354 13.1032 1.50827 12.5244 1.37549 11.8862C1.13414 10.7262 1.9387 9.30254 3.54782 6.45528Z" stroke="#8993A6"/>
<path d="M7.99466 10.6667H8.00028" stroke="#8993A6" stroke-width="2" stroke-linecap="round" stroke-linejoin="round"/>
<path d="M8 8.66666V5.99997" stroke="#8993A6" stroke-linecap="round" stroke-linejoin="round"/>
</svg>

