<svg width="22" height="22" viewBox="0 0 22 22" fill="none" xmlns="http://www.w3.org/2000/svg">
<path d="M4.87791 8.87598C7.09045 4.96095 8.19671 3.00342 9.71479 2.49953C10.5499 2.22232 11.4495 2.22232 12.2846 2.49953C13.8027 3.00342 14.9089 4.96095 17.1215 8.87598C19.334 12.791 20.4402 14.7485 20.1084 16.3435C19.9258 17.221 19.476 18.0169 18.8234 18.6172C17.6373 19.7083 15.4248 19.7083 10.9997 19.7083C6.57461 19.7083 4.36207 19.7083 3.17589 18.6172C2.52333 18.0169 2.07354 17.221 1.89096 16.3435C1.5591 14.7485 2.66537 12.791 4.87791 8.87598Z" stroke="#B02828" stroke-width="1.375"/>
<path d="M10.9932 14.6666H11.0022" stroke="#B02828" stroke-width="1.83333" stroke-linecap="round" stroke-linejoin="round"/>
<path d="M11 11.9167V8.25" stroke="#B02828" stroke-width="1.375" stroke-linecap="round" stroke-linejoin="round"/>
</svg>
