<svg width="20" height="20" viewBox="0 0 20 20" fill="none" xmlns="http://www.w3.org/2000/svg">
<path d="M8.75016 9.37499C8.75016 8.56957 8.09725 7.91666 7.29183 7.91666C6.48641 7.91666 5.8335 8.56957 5.8335 9.37499C5.8335 10.1804 6.48641 10.8333 7.29183 10.8333C8.09725 10.8333 8.75016 10.1804 8.75016 9.37499Z" stroke="#BCC3D0" stroke-width="1.25"/>
<path d="M14.1667 9.37499C14.1667 8.56957 13.5138 7.91666 12.7083 7.91666C11.9029 7.91666 11.25 8.56957 11.25 9.37499C11.25 10.1804 11.9029 10.8333 12.7083 10.8333C13.5138 10.8333 14.1667 10.1804 14.1667 9.37499Z" stroke="#BCC3D0" stroke-width="1.25"/>
<path d="M9.1665 13.3333L9.41059 13.0255C9.68834 12.6752 9.82725 12.5 9.99984 12.5C10.1724 12.5 10.3113 12.6752 10.5891 13.0255L10.8332 13.3333" stroke="#BCC3D0" stroke-width="1.25" stroke-linecap="round" stroke-linejoin="round"/>
<path d="M9.99984 1.66666C6.08782 1.66666 2.9165 4.80536 2.9165 8.67716C2.9165 10.1387 3.36841 11.4958 4.14148 12.619C3.93035 12.8517 3.80192 13.1595 3.80192 13.4968C3.80192 14.2228 4.39655 14.8113 5.13005 14.8113V15.8274C5.13005 16.3685 5.38835 16.8849 5.85524 17.1584C8.52909 18.725 11.4706 18.725 14.1444 17.1584C14.6113 16.8849 14.8697 16.3685 14.8697 15.8274V14.8113C15.6032 14.8113 16.1978 14.2228 16.1978 13.4968C16.1978 13.1595 16.0693 12.8517 15.8582 12.619C16.6313 11.4958 17.0832 10.1387 17.0832 8.67716C17.0832 4.80536 13.9118 1.66666 9.99984 1.66666Z" stroke="#BCC3D0" stroke-width="1.25" stroke-linecap="round" stroke-linejoin="round"/>
<path d="M11.6665 17.9167V16.6667" stroke="#BCC3D0" stroke-width="1.25" stroke-linecap="round" stroke-linejoin="round"/>
<path d="M8.3335 17.9167V16.6667" stroke="#BCC3D0" stroke-width="1.25" stroke-linecap="round" stroke-linejoin="round"/>
</svg>
