<svg width="18" height="18" viewBox="0 0 18 18" fill="none" xmlns="http://www.w3.org/2000/svg">
<path d="M16.5 9.37508C16.5 9.00653 16.496 8.2629 16.4881 7.8933C16.4392 5.59415 16.4147 4.44457 15.5663 3.593C14.7179 2.74142 13.5373 2.71176 11.1759 2.65243C9.72053 2.61586 8.27947 2.61586 6.82411 2.65242C4.46275 2.71175 3.28206 2.74141 2.43371 3.59299C1.58537 4.44456 1.56085 5.59414 1.51182 7.8933C1.49605 8.63258 1.49606 9.36743 1.51183 10.1067C1.56086 12.4059 1.58537 13.5554 2.43372 14.4071C3.28206 15.2586 4.46275 15.2882 6.82412 15.3476C7.42619 15.3627 8.02582 15.3716 8.625 15.3742" stroke="#BCC3D0" stroke-width="1.6" stroke-linecap="round" stroke-linejoin="round"/>
<path d="M1.5 4.5L6.68477 7.44346C8.57903 8.51887 9.42097 8.51887 11.3152 7.44346L16.5 4.5" stroke="#BCC3D0" stroke-width="1.6" stroke-linejoin="round"/>
<path d="M16.5 13.125H10.5M16.5 13.125C16.5 12.5998 15.0043 11.6186 14.625 11.25M16.5 13.125C16.5 13.6502 15.0043 14.6314 14.625 15" stroke="#BCC3D0" stroke-width="1.6" stroke-linecap="round" stroke-linejoin="round"/>
</svg>
