<svg width="16" height="16" viewBox="0 0 16 16" fill="none" xmlns="http://www.w3.org/2000/svg">
    <path d="M1.66663 7.99996C1.66663 5.0144 1.66663 3.52162 2.59412 2.59412C3.52162 1.66663 5.0144 1.66663 7.99996 1.66663C10.9855 1.66663 12.4783 1.66663 13.4058 2.59412C14.3333 3.52162 14.3333 5.0144 14.3333 7.99996C14.3333 10.9855 14.3333 12.4783 13.4058 13.4058C12.4783 14.3333 10.9855 14.3333 7.99996 14.3333C5.0144 14.3333 3.52162 14.3333 2.59412 13.4058C1.66663 12.4783 1.66663 10.9855 1.66663 7.99996Z" stroke="#20C867" stroke-width="1.25" />
    <path d="M5.33337 6.87573C6.09926 6.32186 7.01397 6 7.99644 6C8.98197 6 9.89937 6.32389 10.6667 6.88093M9.44957 8.66667C9.01217 8.4242 8.51864 8.2878 7.99644 8.2878C7.47684 8.2878 6.98564 8.42287 6.54989 8.663" stroke="#20C867" stroke-width="1.25" stroke-linecap="round" />
    <path d="M8 10.6666H8.00427" stroke="#20C867" stroke-width="1.66667" stroke-linecap="round" stroke-linejoin="round" />
</svg>
