<svg width="16" height="16" viewBox="0 0 16 16" fill="none" xmlns="http://www.w3.org/2000/svg">
<path d="M2 14L5.33333 10.6667" stroke="#8993A6" stroke-linecap="round" stroke-linejoin="round"/>
<path d="M8.83898 12.5809C6.34342 12.0143 3.98561 9.65653 3.419 7.161C3.32931 6.76593 3.28446 6.56844 3.41439 6.24798C3.54431 5.92753 3.70303 5.82837 4.02045 5.63006C4.73801 5.18177 5.51501 5.03925 6.32137 5.11057C7.45285 5.21065 8.01858 5.26069 8.30078 5.11365C8.58305 4.96661 8.77478 4.62278 9.15838 3.93513L9.64425 3.06403C9.96431 2.49019 10.1244 2.20327 10.5008 2.06801C10.8773 1.93275 11.1038 2.01466 11.557 2.17847C12.6166 2.56157 13.4384 3.38337 13.8215 4.44299C13.9853 4.89611 14.0672 5.12267 13.932 5.49913C13.7967 5.8756 13.5098 6.03564 12.9359 6.35572L12.0448 6.8528C11.3584 7.2356 11.0152 7.42707 10.8682 7.712C10.7212 7.997 10.7746 8.5504 10.8814 9.65727C10.9599 10.4712 10.8246 11.2533 10.3703 11.9798C10.1718 12.2972 10.0725 12.4559 9.75218 12.5857C9.43178 12.7155 9.23418 12.6707 8.83898 12.5809Z" stroke="#8993A6" stroke-linecap="round" stroke-linejoin="round"/>
</svg>
