<svg width="22" height="22" viewBox="0 0 22 22" fill="none" xmlns="http://www.w3.org/2000/svg">
<path d="M13.0497 4.8508C13.0497 4.37425 13.0497 4.13598 12.9974 3.94049C12.8552 3.40997 12.4408 2.9956 11.9104 2.85345C11.3956 2.71552 10.6044 2.71552 10.0896 2.85345C9.55915 2.9956 9.14481 3.40997 9.00265 3.94049C8.95027 4.13598 8.95027 4.37425 8.95027 4.8508C8.95027 5.81706 8.95027 8.34992 8.6501 8.6501C8.34992 8.95027 5.81706 8.95027 4.8508 8.95027C4.37425 8.95027 4.13598 8.95027 3.94049 9.00265C3.40997 9.14481 2.9956 9.55919 2.85345 10.0897C2.71552 10.6045 2.71552 11.3955 2.85345 11.9103C2.9956 12.4408 3.40997 12.8552 3.94049 12.9973C4.13598 13.0498 4.37425 13.0498 4.8508 13.0498C5.81706 13.0498 8.34992 13.0498 8.6501 13.3499C8.95027 13.6501 8.95027 14.1332 8.95027 15.0994C8.95027 15.576 8.95027 17.8641 9.00265 18.0595C9.14481 18.59 9.55915 19.0044 10.0896 19.1465C10.6044 19.2845 11.3956 19.2845 11.9104 19.1465C12.4408 19.0044 12.8552 18.59 12.9974 18.0595C13.0497 17.8641 13.0497 15.576 13.0497 15.0994C13.0497 14.1332 13.0497 13.6501 13.3499 13.3499C13.65 13.0498 16.1829 13.0498 17.1492 13.0498C17.6257 13.0498 17.8641 13.0498 18.0596 12.9973C18.5901 12.8552 19.0044 12.4408 19.1466 11.9103C19.2845 11.3955 19.2845 10.6045 19.1466 10.0897C19.0044 9.55919 18.5901 9.14481 18.0596 9.00265C17.8641 8.95027 17.6257 8.95027 17.1492 8.95027C16.1829 8.95027 13.65 8.95027 13.3499 8.6501C13.0497 8.34992 13.0497 5.81706 13.0497 4.8508Z" fill="#FFB342"/>
</svg>
