<svg width="20" height="20" viewBox="0 0 20 20" fill="none" xmlns="http://www.w3.org/2000/svg">
<path d="M4.21738 17.5506C3.72922 18.0387 2.93777 18.0387 2.44961 17.5506C1.96146 17.0624 1.96146 16.2709 2.44961 15.7827C2.93777 15.2947 3.72922 15.2947 4.21738 15.7827C4.70554 16.2709 4.70554 17.0624 4.21738 17.5506Z" stroke="#BCC3D0" stroke-width="1.375"/>
<path d="M6.66683 13.3333L4.5835 15.4166" stroke="#BCC3D0" stroke-width="1.375" stroke-linecap="round" stroke-linejoin="round"/>
<path d="M7.91667 13.75L16.7277 6.00269C16.9588 5.8024 17.1204 5.53393 17.1892 5.23594L17.9167 2.08337L14.7641 2.81089C14.4661 2.87966 14.1977 3.04122 13.9973 3.27233L6.25 12.0834" stroke="#BCC3D0" stroke-width="1.375" stroke-linejoin="round"/>
<path d="M3.3335 10.8333H3.8098C4.25184 10.8333 4.67575 11.0089 4.98832 11.3215L8.67866 15.0118C8.99125 15.3244 9.16683 15.7483 9.16683 16.1903V16.6666" stroke="#BCC3D0" stroke-width="1.375" stroke-linecap="round" stroke-linejoin="round"/>
</svg>
