<svg width="16" height="16" viewBox="0 0 16 16" fill="none" xmlns="http://www.w3.org/2000/svg">
<path d="M7.99025 10.2722L10.1512 12.7291C10.9518 13.6393 11.3521 14.0944 11.7711 13.9836C12.1901 13.8728 12.3338 13.2739 12.6212 12.0759L14.2152 5.4306C14.6578 3.58555 14.8791 2.66303 14.3872 2.208C13.8953 1.75298 13.0426 2.0915 11.3374 2.76855L3.42582 5.90966C2.06193 6.45116 1.37999 6.72193 1.33669 7.1872C1.33226 7.2348 1.33219 7.28273 1.33647 7.33033C1.37834 7.7958 2.05945 8.06887 3.42168 8.61487C4.0389 8.86227 4.34751 8.986 4.56878 9.22293C4.59366 9.24953 4.61758 9.27713 4.6405 9.3056C4.84437 9.55893 4.93137 9.8914 5.10537 10.5563L5.431 11.8007C5.60031 12.4477 5.68497 12.7712 5.9067 12.8153C6.12843 12.8594 6.32148 12.5911 6.70758 12.0546L7.99025 10.2722ZM7.99025 10.2722L7.77838 10.0514C7.53725 9.80006 7.41671 9.67447 7.41671 9.51833C7.41671 9.3622 7.53725 9.23653 7.77838 8.9852L10.1604 6.50273" stroke="#BCC3D0" stroke-linecap="round" stroke-linejoin="round"/>
</svg>
