<svg width="16" height="16" viewBox="0 0 16 16" fill="none" xmlns="http://www.w3.org/2000/svg">
<path d="M7.99998 14.6666C11.6818 14.6666 14.6666 11.6818 14.6666 7.99998C14.6666 4.31808 11.6818 1.33331 7.99998 1.33331C4.31808 1.33331 1.33331 4.31808 1.33331 7.99998C1.33331 8.91925 1.51936 9.79505 1.85586 10.5918C2.04183 11.032 2.13482 11.2522 2.14633 11.4186C2.15785 11.585 2.10887 11.768 2.01093 12.1341L1.33331 14.6666L3.86583 13.989C4.2319 13.8911 4.41494 13.8421 4.58133 13.8536C4.74772 13.8651 4.96788 13.9581 5.40821 14.1441C6.20495 14.4806 7.08071 14.6666 7.99998 14.6666Z" stroke="#BCC3D0" stroke-linejoin="round"/>
<path d="M5.72545 8.25155L6.30608 7.53042C6.55079 7.22649 6.85329 6.94355 6.87702 6.53886C6.88295 6.43665 6.81109 5.97773 6.66722 5.05993C6.61069 4.69923 6.27393 4.66669 5.98223 4.66669C5.60211 4.66669 5.41205 4.66669 5.22332 4.75289C4.98478 4.86185 4.73988 5.16823 4.68613 5.42491C4.64361 5.62799 4.67521 5.76793 4.73841 6.04781C5.00684 7.23655 5.63656 8.41055 6.61301 9.38702C7.58949 10.3635 8.76349 10.9932 9.95222 11.2616C10.2321 11.3248 10.372 11.3564 10.5752 11.3139C10.8318 11.2602 11.1382 11.0153 11.2472 10.7767C11.3334 10.588 11.3334 10.398 11.3334 10.0178C11.3334 9.72609 11.3008 9.38935 10.9401 9.33282C10.0223 9.18895 9.56342 9.11709 9.46115 9.12302C9.05649 9.14675 8.77355 9.44922 8.46962 9.69395L7.74849 10.2746" stroke="#BCC3D0"/>
</svg>
